<svg id="svg" version="1.1" xmlns="http://www.w3.org/2000/svg" xmlns:xlink="http://www.w3.org/1999/xlink" width="400" height="387.6923076923077" viewBox="0, 0, 400,387.6923076923077"><g id="svgg"><path id="path0" d="M198.120 33.299 C 197.767 33.689,197.478 34.213,197.478 34.463 C 197.478 35.437,172.391 35.073,172.135 34.095 C 171.895 33.175,167.070 33.122,166.507 34.034 C 166.359 34.273,165.760 34.588,165.176 34.735 C 164.105 35.003,163.692 35.694,164.601 35.694 C 165.601 35.694,166.224 37.325,165.442 37.896 C 165.056 38.178,164.599 38.409,164.426 38.409 C 164.254 38.409,164.113 39.160,164.113 40.078 C 164.113 41.865,163.603 42.677,162.483 42.677 C 162.099 42.677,161.785 42.929,161.785 43.237 C 161.785 43.704,160.435 43.817,153.717 43.916 L 145.650 44.035 144.059 45.296 C 142.444 46.576,133.463 47.333,133.463 46.189 C 133.463 45.987,132.575 45.376,131.491 44.831 C 128.582 43.370,119.496 43.389,119.496 44.856 C 119.496 45.164,119.099 45.393,118.567 45.393 C 118.057 45.393,117.538 45.655,117.415 45.975 C 117.229 46.459,116.124 46.557,110.801 46.557 C 106.959 46.557,104.315 46.711,104.171 46.945 C 104.029 47.173,101.710 47.333,98.522 47.333 C 93.372 47.333,93.113 47.370,93.113 48.109 C 93.113 48.617,92.855 48.885,92.365 48.885 C 91.883 48.885,91.571 49.197,91.492 49.758 C 91.370 50.615,91.259 50.632,85.354 50.733 C 80.556 50.816,79.253 50.954,78.907 51.417 C 78.522 51.931,78.418 51.931,77.986 51.411 C 77.571 50.910,75.713 50.824,65.326 50.824 C 54.764 50.824,53.152 50.747,53.152 50.242 C 53.152 49.887,52.790 49.661,52.224 49.661 C 51.713 49.661,51.195 49.922,51.072 50.242 C 50.771 51.028,39.409 51.125,39.669 50.339 C 39.779 50.008,41.161 49.793,44.039 49.661 C 48.240 49.467,48.250 49.464,48.533 48.400 L 48.817 47.333 43.651 47.333 L 38.485 47.333 38.079 48.497 L 37.674 49.661 32.655 49.661 C 27.967 49.661,27.623 49.610,27.434 48.887 C 27.168 47.868,26.079 47.481,25.136 48.070 C 24.606 48.401,24.236 48.421,23.892 48.135 C 23.344 47.680,19.399 51.261,19.399 52.214 C 19.399 52.501,18.977 53.492,18.461 54.415 C 17.946 55.339,17.397 56.785,17.242 57.630 C 17.086 58.475,16.838 59.253,16.691 59.360 C 16.318 59.630,15.472 62.730,15.262 64.597 C 15.166 65.451,14.936 66.499,14.751 66.925 C 13.707 69.335,13.226 73.711,13.010 82.754 C 12.884 88.046,12.616 94.114,12.413 96.239 C 11.480 106.028,9.923 211.721,9.906 266.343 L 9.893 308.632 10.946 313.482 C 17.025 341.500,35.471 361.347,59.796 366.040 C 69.087 367.832,70.349 367.847,202.328 367.700 L 327.255 367.561 331.528 366.732 C 361.745 360.874,382.271 336.049,383.737 303.589 C 384.173 293.934,383.593 224.586,382.730 183.317 C 381.734 135.668,381.366 114.938,381.351 105.529 C 381.342 100.514,381.169 94.142,380.965 91.368 C 380.762 88.594,380.429 82.509,380.226 77.847 C 380.023 73.185,379.699 69.170,379.505 68.924 C 379.312 68.678,379.054 67.101,378.934 65.419 C 378.813 63.737,378.527 62.174,378.300 61.946 C 378.072 61.719,377.883 61.175,377.880 60.737 C 377.877 60.300,377.607 59.173,377.279 58.233 C 376.952 57.294,376.775 56.290,376.885 56.002 C 376.995 55.715,376.940 55.480,376.763 55.480 C 376.586 55.480,376.530 55.018,376.638 54.453 C 376.773 53.743,376.697 53.510,376.390 53.699 C 376.100 53.878,375.946 53.628,375.946 52.981 C 375.946 52.435,375.762 51.988,375.538 51.988 C 375.314 51.988,374.852 51.334,374.513 50.533 C 374.173 49.733,373.818 49.297,373.724 49.564 C 373.630 49.830,373.153 50.048,372.663 50.048 C 372.174 50.048,371.551 50.316,371.279 50.643 C 370.842 51.171,370.682 51.141,369.874 50.382 L 368.962 49.525 368.962 50.757 C 368.962 51.572,368.773 51.988,368.401 51.988 C 368.008 51.988,367.806 52.537,367.723 53.831 L 367.604 55.674 363.005 55.784 C 358.266 55.897,357.607 56.108,357.216 57.641 C 357.037 58.344,357.022 58.341,356.980 57.595 C 356.881 55.851,355.162 55.263,354.766 56.838 C 354.578 57.588,354.273 57.808,353.421 57.808 C 352.351 57.808,352.315 57.874,352.202 60.039 C 352.099 62.015,351.986 62.284,351.212 62.394 C 350.534 62.490,350.339 62.771,350.339 63.655 C 350.339 64.417,350.144 64.791,349.745 64.791 C 349.419 64.791,349.051 65.053,348.928 65.373 C 348.640 66.124,346.961 66.124,346.210 65.373 C 345.890 65.053,345.292 64.791,344.880 64.791 C 344.469 64.791,344.132 64.582,344.132 64.326 C 344.132 63.964,344.028 63.964,343.666 64.326 C 342.575 65.417,339.476 64.901,339.476 63.628 C 339.476 62.652,339.630 62.464,340.423 62.464 C 340.944 62.464,341.478 62.289,341.610 62.076 C 341.755 61.841,341.214 61.688,340.239 61.688 C 338.954 61.688,338.587 61.531,338.425 60.912 C 338.313 60.485,338.068 60.136,337.879 60.136 C 337.435 60.136,335.984 58.687,335.984 58.243 C 335.984 58.056,335.715 57.679,335.386 57.406 C 334.156 56.385,333.860 57.579,333.623 64.519 C 333.163 78.027,331.046 86.236,326.436 92.391 C 304.383 121.834,262.947 118.205,248.942 85.603 C 244.047 74.211,244.349 62.579,249.838 51.055 C 250.864 48.901,252.169 46.004,252.738 44.617 C 253.307 43.230,253.940 41.833,254.144 41.513 C 254.348 41.193,254.614 40.669,254.735 40.349 C 254.856 40.029,255.118 39.462,255.318 39.088 C 255.524 38.703,255.531 38.409,255.335 38.409 C 255.144 38.409,254.897 38.060,254.786 37.633 C 254.531 36.661,249.079 36.423,249.079 37.384 C 249.079 38.442,235.920 38.627,235.272 37.579 C 234.980 37.107,234.667 37.140,241.901 36.891 C 248.367 36.668,248.499 36.646,248.621 35.790 L 248.745 34.918 241.552 34.918 C 234.313 34.918,231.232 34.327,231.232 32.939 C 231.232 32.274,213.113 32.504,212.857 33.172 C 212.734 33.492,212.424 33.754,212.167 33.754 C 211.910 33.754,211.391 34.033,211.014 34.375 C 210.280 35.039,206.636 34.835,206.185 34.105 C 206.066 33.912,205.449 33.754,204.815 33.754 C 204.147 33.754,203.567 33.508,203.438 33.172 C 203.092 32.270,198.962 32.369,198.120 33.299 M191.352 52.789 C 198.264 52.886,202.134 54.181,208.729 58.604 C 211.343 60.356,214.937 63.549,214.937 64.118 C 214.937 64.348,215.174 64.812,215.464 65.149 C 218.023 68.121,217.768 81.419,215.062 86.120 C 210.410 94.201,201.912 98.534,185.017 101.437 C 181.897 101.973,177.358 102.925,174.930 103.553 C 150.090 109.968,128.649 130.687,123.539 153.212 C 121.129 163.837,121.068 163.806,143.281 163.338 C 154.596 163.099,154.689 163.074,159.317 159.061 C 172.591 147.550,184.014 145.091,199.722 150.364 C 213.706 155.058,226.041 168.133,229.480 181.909 C 237.509 214.063,213.303 244.207,182.023 241.006 C 172.352 240.016,167.343 237.624,157.336 229.215 C 153.305 225.828,153.144 225.800,137.641 225.800 C 121.462 225.800,121.656 225.741,121.771 230.626 C 122.090 244.217,135.030 265.071,150.320 276.637 C 189.413 306.209,247.811 287.821,259.404 242.290 C 261.216 235.177,261.284 232.494,260.700 191.422 C 260.403 170.534,260.179 151.511,260.202 149.148 C 260.454 123.622,289.924 114.331,301.096 136.256 C 304.437 142.814,304.368 139.007,302.605 219.593 C 302.052 244.875,300.480 254.866,295.234 266.435 C 284.232 290.699,266.504 309.066,242.201 321.382 C 225.114 330.041,197.802 333.864,175.364 330.738 C 130.520 324.491,88.666 283.508,82.064 239.379 C 80.750 230.596,79.878 151.793,81.018 144.908 C 81.786 140.273,82.911 135.954,84.222 132.605 C 84.866 130.960,85.905 128.100,86.530 126.249 C 92.042 109.943,109.184 88.216,126.479 75.615 C 134.389 69.851,135.721 69.024,142.386 65.733 C 152.560 60.710,160.130 57.789,167.216 56.154 C 168.603 55.834,171.229 55.127,173.052 54.582 C 176.731 53.481,185.004 52.275,186.502 52.620 C 186.760 52.679,188.943 52.755,191.352 52.789 M283.503 54.912 C 272.244 57.151,266.089 70.652,272.158 79.796 C 281.842 94.390,301.238 90.075,303.103 72.913 C 304.466 60.371,295.848 52.456,283.503 54.912 M150.649 230.389 C 150.905 230.601,151.751 230.893,152.528 231.038 C 153.390 231.199,154.442 231.819,155.223 232.625 C 155.928 233.352,156.692 233.948,156.921 233.948 C 157.299 233.948,158.149 234.584,162.647 238.234 C 164.309 239.582,167.186 241.099,169.156 241.665 C 169.903 241.880,171.552 242.416,172.821 242.857 C 177.388 244.442,195.750 245.660,197.237 244.477 C 197.476 244.286,198.675 244.009,199.900 243.861 C 201.174 243.707,203.039 243.106,204.257 242.455 C 205.429 241.830,206.904 241.319,207.535 241.319 C 208.167 241.319,208.800 241.130,208.943 240.899 C 209.441 240.094,211.445 242.508,211.445 243.914 C 211.445 244.620,211.271 245.199,211.057 245.199 C 210.336 245.199,210.563 246.239,211.727 248.261 C 211.775 248.345,212.107 248.171,212.464 247.874 C 213.053 247.386,213.096 247.453,212.928 248.595 C 212.779 249.610,212.876 249.855,213.429 249.855 C 213.807 249.855,214.223 250.029,214.355 250.242 C 214.487 250.456,214.907 250.630,215.288 250.630 C 215.669 250.630,216.297 250.980,216.683 251.406 C 217.069 251.833,217.605 252.182,217.875 252.182 C 218.144 252.182,218.432 252.387,218.516 252.637 C 218.602 252.896,219.742 253.166,221.167 253.264 C 222.644 253.365,223.943 253.679,224.344 254.032 C 224.717 254.360,225.543 254.614,226.180 254.595 C 226.817 254.577,227.439 254.725,227.562 254.924 C 227.685 255.123,228.541 255.286,229.464 255.286 C 230.815 255.286,231.181 255.437,231.344 256.062 C 231.537 256.799,231.873 256.838,237.982 256.838 C 243.996 256.838,244.448 256.787,244.901 256.062 C 245.244 255.513,245.806 255.286,246.821 255.286 C 247.611 255.286,248.366 255.110,248.498 254.895 C 248.650 254.650,248.944 254.708,249.287 255.051 C 249.978 255.743,249.363 257.105,247.233 259.599 C 246.434 260.535,245.259 262.347,244.621 263.628 C 243.241 266.398,235.371 274.558,232.008 276.704 C 214.263 288.031,195.859 291.035,175.459 285.936 C 169.348 284.408,158.996 279.982,155.584 277.438 C 142.138 267.411,136.775 260.952,129.620 246.169 C 127.339 241.457,127.158 240.882,126.870 237.439 C 126.700 235.412,126.444 233.306,126.302 232.759 C 125.933 231.338,127.274 229.667,128.181 230.419 C 128.638 230.799,128.944 230.825,129.316 230.517 C 130.206 229.777,149.767 229.660,150.649 230.389 M27.934 252.567 C 28.278 253.110,37.741 253.216,37.920 252.679 C 38.116 252.094,39.305 253.162,39.744 254.316 C 40.030 255.069,40.049 255.066,40.376 254.219 C 40.806 253.104,48.769 252.854,49.661 253.928 C 49.926 254.248,50.308 254.510,50.510 254.510 C 50.711 254.510,51.505 254.990,52.274 255.577 C 53.604 256.591,53.919 256.651,58.650 256.780 L 63.628 256.916 63.628 255.685 L 63.628 254.454 64.692 255.291 L 65.757 256.129 66.011 255.222 C 66.195 254.569,66.277 254.511,66.305 255.013 C 66.340 255.653,66.818 255.704,72.202 255.653 C 76.012 255.617,78.211 255.747,78.488 256.024 C 78.722 256.258,79.345 256.450,79.872 256.450 C 80.902 256.450,82.250 257.440,82.250 258.196 C 82.250 258.450,82.579 258.955,82.981 259.319 C 83.383 259.682,84.023 260.801,84.405 261.804 C 87.290 269.394,96.460 283.214,106.079 294.471 C 110.348 299.467,110.049 299.160,114.064 302.650 C 115.878 304.226,118.033 306.130,118.853 306.880 C 130.388 317.433,154.716 329.324,170.019 331.889 C 207.764 338.217,245.275 328.269,270.029 305.368 C 271.416 304.085,272.657 303.029,272.786 303.021 C 273.050 303.005,280.218 295.289,282.718 292.329 C 286.648 287.676,292.144 279.972,292.144 279.116 C 292.144 279.017,292.610 278.198,293.179 277.295 C 293.749 276.393,294.656 274.956,295.195 274.103 C 297.247 270.853,297.681 270.626,302.123 270.479 C 305.232 270.376,306.111 270.226,306.111 269.800 C 306.111 269.397,306.662 269.253,308.203 269.253 C 309.705 269.253,310.358 269.089,310.519 268.671 C 310.695 268.213,311.494 268.089,314.291 268.089 L 317.841 268.089 319.393 266.537 L 320.945 264.985 326.137 264.985 L 331.329 264.985 331.374 266.052 C 331.399 266.639,331.491 266.857,331.579 266.537 C 331.892 265.401,333.716 264.985,338.390 264.985 C 341.661 264.985,342.968 264.854,342.968 264.525 C 342.968 263.670,344.647 262.270,345.674 262.270 C 346.234 262.270,346.858 262.110,347.061 261.915 C 347.264 261.720,349.822 261.502,352.745 261.430 C 356.325 261.342,358.219 261.141,358.546 260.815 C 359.154 260.206,370.902 260.114,370.902 260.718 C 370.902 261.282,373.512 261.194,373.780 260.621 C 373.961 260.233,374.051 260.233,374.232 260.621 C 374.367 260.910,375.210 261.106,376.322 261.106 C 378.779 261.106,379.437 262.323,379.437 266.864 C 379.437 268.580,379.585 270.075,379.766 270.186 C 379.946 270.298,380.206 272.534,380.342 275.156 C 380.479 277.777,380.773 282.105,380.996 284.772 C 381.974 296.484,380.962 314.936,379.016 320.864 C 370.932 345.490,355.462 359.771,331.271 364.940 C 326.660 365.925,272.406 366.286,166.052 366.039 C 68.897 365.813,68.384 365.803,59.693 364.129 C 36.560 359.672,17.823 339.169,13.170 313.220 C 12.058 307.024,12.317 275.319,13.535 268.477 C 13.744 267.304,14.030 264.641,14.171 262.561 C 14.312 260.481,14.586 258.681,14.779 258.562 C 14.973 258.442,15.131 258.036,15.131 257.660 C 15.131 257.237,15.797 256.643,16.877 256.104 C 17.837 255.624,18.623 254.982,18.623 254.677 C 18.623 254.372,18.885 254.122,19.205 254.122 C 19.525 254.122,19.787 253.948,19.787 253.734 C 19.787 253.521,20.027 253.346,20.321 253.346 C 20.615 253.346,21.064 253.095,21.319 252.788 C 22.106 251.839,27.362 251.664,27.934 252.567 " stroke="none" fill="#489677" fill-rule="evenodd"></path><path id="path1" d="M0.000 193.986 L 0.000 387.973 200.000 387.973 L 400.000 387.973 400.000 193.986 L 400.000 0.000 200.000 0.000 L 0.000 0.000 0.000 193.986 M240.349 7.538 C 252.925 9.649,260.739 14.214,266.203 22.640 C 271.093 30.181,270.601 34.328,264.008 41.133 C 247.861 57.798,247.124 80.598,262.223 96.363 C 274.860 109.558,295.925 111.192,311.283 100.168 C 321.755 92.650,326.483 83.208,326.470 69.835 C 326.458 58.069,323.636 51.481,314.114 40.987 C 308.395 34.684,307.641 32.195,309.572 25.994 C 315.731 6.221,342.880 2.580,362.367 18.914 C 375.858 30.222,382.946 42.471,385.883 59.554 C 386.589 63.657,387.174 140.483,387.311 246.945 L 387.391 308.632 386.540 313.102 C 381.271 340.772,362.253 362.259,337.265 368.775 C 328.560 371.045,336.782 370.928,195.344 370.795 L 65.761 370.673 61.332 369.814 C 31.594 364.043,10.275 339.605,6.560 307.027 C 5.417 297.003,6.690 71.734,7.931 64.467 C 12.881 35.477,32.106 13.579,56.838 8.759 C 58.545 8.426,61.164 7.948,62.658 7.697 C 69.424 6.558,233.637 6.411,240.349 7.538 M291.562 48.307 C 311.902 52.596,315.498 80.368,297.127 91.286 C 286.450 97.632,272.363 92.355,266.065 79.649 L 264.403 76.297 264.403 71.805 C 264.403 57.094,277.891 45.424,291.562 48.307 M182.153 58.839 C 172.528 60.385,155.525 65.903,145.204 70.831 C 115.943 84.800,91.480 115.104,85.866 144.333 C 84.792 149.928,84.783 231.898,85.856 239.379 C 88.762 259.645,101.425 282.606,118.698 298.933 C 151.013 329.479,196.154 337.054,238.991 319.120 C 268.750 306.662,293.651 274.331,297.945 242.577 C 299.042 234.465,299.581 145.301,298.553 141.998 C 292.868 123.730,270.590 124.479,265.708 143.102 C 264.952 145.985,264.927 147.394,264.855 191.077 L 264.781 236.081 263.893 239.961 C 255.047 278.617,216.897 301.450,176.140 292.482 C 149.343 286.585,124.714 261.987,118.699 235.112 C 115.976 222.947,117.181 222.109,137.342 222.141 C 154.726 222.169,154.698 222.164,159.095 225.908 C 166.962 232.606,170.943 234.994,176.823 236.540 C 203.379 243.521,228.912 220.508,226.834 191.465 C 224.786 162.830,192.141 142.877,169.651 156.512 C 167.992 157.518,164.976 159.731,162.949 161.430 C 156.034 167.225,154.575 167.533,133.773 167.584 C 119.860 167.619,117.589 166.107,118.712 157.561 C 121.322 137.712,134.799 118.561,154.274 107.023 C 164.871 100.745,169.233 99.172,182.052 97.007 C 204.116 93.281,213.020 86.463,211.652 74.341 C 210.424 63.449,197.086 56.440,182.153 58.839 M180.100 170.670 C 200.979 178.757,202.470 206.614,182.541 216.295 C 159.103 227.682,137.231 200.225,152.916 179.106 C 158.821 171.156,171.332 167.273,180.100 170.670 " stroke="none" fill="#f8faf9" fill-rule="evenodd"></path><path id="path2" d="M112.512 9.338 C 68.080 9.614,65.665 9.699,57.420 11.288 C 32.210 16.146,12.839 39.566,9.737 68.938 C 9.113 74.846,8.484 154.133,8.408 236.469 L 8.341 308.632 9.392 313.482 C 15.616 342.211,33.969 362.072,59.285 367.473 L 64.985 368.689 150.533 369.054 C 262.688 369.533,327.677 369.097,333.463 367.827 C 356.343 362.803,372.698 347.954,381.569 324.151 C 385.997 312.271,386.083 309.750,385.228 216.877 C 385.003 192.444,384.677 148.274,384.504 118.720 C 384.200 66.976,384.159 64.806,383.384 60.136 C 380.374 41.984,370.997 27.282,356.353 17.755 C 338.846 6.366,318.178 10.028,312.283 25.565 C 310.075 31.383,310.734 33.979,315.763 39.280 C 325.651 49.703,328.780 56.995,328.791 69.641 C 328.830 111.149,274.548 125.211,253.962 89.025 C 244.911 73.117,248.087 54.543,262.492 39.135 C 267.412 33.872,267.900 31.954,265.599 26.923 C 260.818 16.468,249.824 10.373,234.199 9.514 C 227.860 9.166,156.866 9.063,112.512 9.338 M203.438 33.172 C 203.567 33.508,204.147 33.754,204.815 33.754 C 205.449 33.754,206.066 33.912,206.185 34.105 C 206.636 34.835,210.280 35.039,211.014 34.375 C 211.391 34.033,211.910 33.754,212.167 33.754 C 212.424 33.754,212.734 33.492,212.857 33.172 C 213.113 32.504,231.232 32.274,231.232 32.939 C 231.232 34.327,234.313 34.918,241.552 34.918 L 248.745 34.918 248.621 35.790 C 248.499 36.646,248.367 36.668,241.901 36.891 C 234.667 37.140,234.980 37.107,235.272 37.579 C 235.920 38.627,249.079 38.442,249.079 37.384 C 249.079 36.423,254.531 36.661,254.786 37.633 C 254.897 38.060,255.144 38.409,255.335 38.409 C 255.531 38.409,255.524 38.703,255.318 39.088 C 255.118 39.462,254.856 40.029,254.735 40.349 C 254.614 40.669,254.348 41.193,254.144 41.513 C 253.940 41.833,253.307 43.230,252.738 44.617 C 252.169 46.004,250.864 48.901,249.838 51.055 C 238.340 75.197,251.842 104.318,277.620 110.974 C 295.924 115.701,314.183 108.750,326.436 92.391 C 331.046 86.236,333.163 78.027,333.623 64.519 C 333.860 57.579,334.156 56.385,335.386 57.406 C 335.715 57.679,335.984 58.056,335.984 58.243 C 335.984 58.687,337.435 60.136,337.879 60.136 C 338.068 60.136,338.313 60.485,338.425 60.912 C 338.587 61.531,338.954 61.688,340.239 61.688 C 341.214 61.688,341.755 61.841,341.610 62.076 C 341.478 62.289,340.944 62.464,340.423 62.464 C 339.630 62.464,339.476 62.652,339.476 63.628 C 339.476 64.901,342.575 65.417,343.666 64.326 C 344.028 63.964,344.132 63.964,344.132 64.326 C 344.132 64.582,344.469 64.791,344.880 64.791 C 345.292 64.791,345.890 65.053,346.210 65.373 C 346.961 66.124,348.640 66.124,348.928 65.373 C 349.051 65.053,349.419 64.791,349.745 64.791 C 350.144 64.791,350.339 64.417,350.339 63.655 C 350.339 62.771,350.534 62.490,351.212 62.394 C 351.986 62.284,352.099 62.015,352.202 60.039 C 352.315 57.874,352.351 57.808,353.421 57.808 C 354.273 57.808,354.578 57.588,354.766 56.838 C 355.162 55.263,356.881 55.851,356.980 57.595 C 357.022 58.341,357.037 58.344,357.216 57.641 C 357.607 56.108,358.266 55.897,363.005 55.784 L 367.604 55.674 367.723 53.831 C 367.806 52.537,368.008 51.988,368.401 51.988 C 368.773 51.988,368.962 51.572,368.962 50.757 L 368.962 49.525 369.874 50.382 C 370.682 51.141,370.842 51.171,371.279 50.643 C 371.551 50.316,372.174 50.048,372.663 50.048 C 373.153 50.048,373.630 49.830,373.724 49.564 C 373.818 49.297,374.173 49.733,374.513 50.533 C 374.852 51.334,375.314 51.988,375.538 51.988 C 375.762 51.988,375.946 52.435,375.946 52.981 C 375.946 53.628,376.100 53.878,376.390 53.699 C 376.697 53.510,376.773 53.743,376.638 54.453 C 376.530 55.018,376.586 55.480,376.763 55.480 C 376.940 55.480,376.995 55.715,376.885 56.002 C 376.775 56.290,376.952 57.294,377.279 58.233 C 377.607 59.173,377.877 60.300,377.880 60.737 C 377.883 61.175,378.072 61.719,378.300 61.946 C 378.527 62.174,378.813 63.737,378.934 65.419 C 379.054 67.101,379.312 68.678,379.505 68.924 C 379.699 69.170,380.023 73.185,380.226 77.847 C 380.429 82.509,380.762 88.594,380.965 91.368 C 381.169 94.142,381.342 100.514,381.351 105.529 C 381.366 114.938,381.734 135.668,382.730 183.317 C 383.593 224.586,384.173 293.934,383.737 303.589 C 382.271 336.049,361.745 360.874,331.528 366.732 L 327.255 367.561 202.328 367.700 C 70.349 367.847,69.087 367.832,59.796 366.040 C 35.471 361.347,17.025 341.500,10.946 313.482 L 9.893 308.632 9.906 266.343 C 9.923 211.721,11.480 106.028,12.413 96.239 C 12.616 94.114,12.884 88.046,13.010 82.754 C 13.226 73.711,13.707 69.335,14.751 66.925 C 14.936 66.499,15.166 65.451,15.262 64.597 C 15.472 62.730,16.318 59.630,16.691 59.360 C 16.838 59.253,17.086 58.475,17.242 57.630 C 17.397 56.785,17.946 55.339,18.461 54.415 C 18.977 53.492,19.399 52.501,19.399 52.214 C 19.399 51.261,23.344 47.680,23.892 48.135 C 24.236 48.421,24.606 48.401,25.136 48.070 C 26.079 47.481,27.168 47.868,27.434 48.887 C 27.623 49.610,27.967 49.661,32.655 49.661 L 37.674 49.661 38.079 48.497 L 38.485 47.333 43.651 47.333 L 48.817 47.333 48.533 48.400 C 48.250 49.464,48.240 49.467,44.039 49.661 C 41.161 49.793,39.779 50.008,39.669 50.339 C 39.409 51.125,50.771 51.028,51.072 50.242 C 51.195 49.922,51.713 49.661,52.224 49.661 C 52.790 49.661,53.152 49.887,53.152 50.242 C 53.152 50.747,54.764 50.824,65.326 50.824 C 75.713 50.824,77.571 50.910,77.986 51.411 C 78.418 51.931,78.522 51.931,78.907 51.417 C 79.253 50.954,80.556 50.816,85.354 50.733 C 91.259 50.632,91.370 50.615,91.492 49.758 C 91.571 49.197,91.883 48.885,92.365 48.885 C 92.855 48.885,93.113 48.617,93.113 48.109 C 93.113 47.370,93.372 47.333,98.522 47.333 C 101.710 47.333,104.029 47.173,104.171 46.945 C 104.315 46.711,106.959 46.557,110.801 46.557 C 116.124 46.557,117.229 46.459,117.415 45.975 C 117.538 45.655,118.057 45.393,118.567 45.393 C 119.099 45.393,119.496 45.164,119.496 44.856 C 119.496 43.389,128.582 43.370,131.491 44.831 C 132.575 45.376,133.463 45.987,133.463 46.189 C 133.463 47.333,142.444 46.576,144.059 45.296 L 145.650 44.035 153.717 43.916 C 160.435 43.817,161.785 43.704,161.785 43.237 C 161.785 42.929,162.099 42.677,162.483 42.677 C 163.603 42.677,164.113 41.865,164.113 40.078 C 164.113 39.160,164.254 38.409,164.426 38.409 C 164.599 38.409,165.056 38.178,165.442 37.896 C 166.224 37.325,165.601 35.694,164.601 35.694 C 163.692 35.694,164.105 35.003,165.176 34.735 C 165.760 34.588,166.359 34.273,166.507 34.034 C 167.070 33.122,171.895 33.175,172.135 34.095 C 172.391 35.073,197.478 35.437,197.478 34.463 C 197.478 32.777,202.841 31.615,203.438 33.172 M282.146 51.014 C 269.586 54.544,262.823 69.792,269.047 80.542 C 280.127 99.676,306.532 92.288,306.624 70.029 C 306.676 57.277,294.238 47.614,282.146 51.014 M184.481 52.641 C 180.040 53.011,176.022 53.693,173.052 54.582 C 171.229 55.127,168.603 55.834,167.216 56.154 C 160.130 57.789,152.560 60.710,142.386 65.733 C 135.721 69.024,134.389 69.851,126.479 75.615 C 109.184 88.216,92.042 109.943,86.530 126.249 C 85.905 128.100,84.866 130.960,84.222 132.605 C 82.911 135.954,81.786 140.273,81.018 144.908 C 79.878 151.793,80.750 230.596,82.064 239.379 C 88.666 283.508,130.520 324.491,175.364 330.738 C 197.802 333.864,225.114 330.041,242.201 321.382 C 263.790 310.442,280.089 294.897,290.818 275.013 C 300.264 257.507,301.949 249.585,302.605 219.593 C 304.368 139.007,304.437 142.814,301.096 136.256 C 291.552 117.525,266.792 120.986,261.068 141.851 C 260.027 145.646,260.034 144.647,260.700 191.422 C 261.284 232.494,261.216 235.177,259.404 242.290 C 247.811 287.821,189.413 306.209,150.320 276.637 C 135.030 265.071,122.090 244.217,121.771 230.626 C 121.656 225.741,121.462 225.800,137.641 225.800 C 153.144 225.800,153.305 225.828,157.336 229.215 C 167.343 237.624,172.352 240.016,182.023 241.006 C 213.303 244.207,237.509 214.063,229.480 181.909 C 226.041 168.133,213.706 155.058,199.722 150.364 C 184.014 145.091,172.591 147.550,159.317 159.061 C 154.689 163.074,154.596 163.099,143.281 163.338 C 121.068 163.806,121.129 163.837,123.539 153.212 C 128.649 130.687,150.090 109.968,174.930 103.553 C 177.358 102.925,181.897 101.973,185.017 101.437 C 201.912 98.534,210.410 94.201,215.062 86.120 C 217.768 81.419,218.023 68.121,215.464 65.149 C 215.174 64.812,214.937 64.348,214.937 64.118 C 214.937 63.549,211.343 60.356,208.729 58.604 C 202.134 54.181,198.264 52.886,191.352 52.789 C 188.943 52.755,186.760 52.679,186.502 52.620 C 186.244 52.560,185.335 52.570,184.481 52.641 M291.337 54.934 C 308.099 58.046,307.223 83.952,290.210 88.295 C 277.043 91.656,264.360 74.452,271.929 63.499 C 277.116 55.992,283.015 53.389,291.337 54.934 M198.907 57.504 C 210.123 61.463,215.466 69.220,213.824 79.162 C 212.055 89.870,203.452 95.545,183.899 98.901 C 169.205 101.424,160.422 104.910,149.773 112.446 C 133.602 123.890,121.629 142.922,120.755 158.572 C 120.361 165.621,121.884 166.075,143.550 165.364 C 155.315 164.978,155.586 164.896,161.429 159.972 C 176.910 146.926,194.211 146.484,210.710 158.712 C 242.902 182.569,229.728 235.306,190.551 239.408 C 178.329 240.687,170.049 237.717,158.363 227.860 C 153.990 224.172,149.401 223.524,131.019 224.000 C 120.601 224.269,119.679 224.810,120.013 230.458 C 120.901 245.488,133.959 266.442,149.758 278.190 C 168.331 292.001,195.220 296.454,216.189 289.191 C 242.519 280.071,260.272 258.838,262.701 233.560 C 263.003 230.415,263.051 216.958,262.862 187.973 C 262.536 137.958,262.403 139.122,269.254 132.271 C 279.959 121.566,295.339 125.967,300.534 141.222 C 301.604 144.364,301.049 233.388,299.903 242.360 C 294.349 285.851,256.680 322.417,210.475 329.170 C 179.853 333.644,152.577 326.918,127.449 308.695 C 103.563 291.372,86.172 262.313,83.412 235.112 C 82.791 228.993,82.435 158.845,82.986 151.309 C 86.172 107.772,127.288 67.200,178.274 57.282 C 179.981 56.950,181.814 56.597,182.347 56.496 C 185.561 55.893,196.172 56.539,198.907 57.504 M167.942 172.655 C 156.314 174.619,147.932 187.845,150.747 199.785 C 155.256 218.919,180.952 222.345,191.178 205.176 C 200.708 189.177,186.645 169.494,167.942 172.655 M179.946 174.787 C 192.638 180.598,196.907 194.004,189.700 205.416 C 178.558 223.058,151.309 215.358,151.309 194.568 C 151.309 179.711,167.010 168.865,179.946 174.787 " stroke="none" fill="#82b29d" fill-rule="evenodd"></path><path id="path3" d="M134.262 229.984 C 131.806 230.045,129.597 230.283,129.316 230.517 C 128.944 230.825,128.638 230.799,128.181 230.419 C 127.274 229.667,125.933 231.338,126.302 232.759 C 126.444 233.306,126.700 235.412,126.870 237.439 C 127.158 240.882,127.339 241.457,129.620 246.169 C 136.775 260.952,142.138 267.411,155.584 277.438 C 158.996 279.982,169.348 284.408,175.459 285.936 C 195.859 291.035,214.263 288.031,232.008 276.704 C 235.371 274.558,243.241 266.398,244.621 263.628 C 245.259 262.347,246.434 260.535,247.233 259.599 C 249.363 257.105,249.978 255.743,249.287 255.051 C 248.944 254.708,248.650 254.650,248.498 254.895 C 248.366 255.110,247.611 255.286,246.821 255.286 C 245.806 255.286,245.244 255.513,244.901 256.062 C 244.448 256.787,243.996 256.838,237.982 256.838 C 231.873 256.838,231.537 256.799,231.344 256.062 C 231.181 255.437,230.815 255.286,229.464 255.286 C 228.541 255.286,227.685 255.123,227.562 254.924 C 227.439 254.725,226.817 254.577,226.180 254.595 C 225.543 254.614,224.717 254.360,224.344 254.032 C 223.943 253.679,222.644 253.365,221.167 253.264 C 219.742 253.166,218.602 252.896,218.516 252.637 C 218.432 252.387,218.144 252.182,217.875 252.182 C 217.605 252.182,217.069 251.833,216.683 251.406 C 216.297 250.980,215.669 250.630,215.288 250.630 C 214.907 250.630,214.487 250.456,214.355 250.242 C 214.223 250.029,213.807 249.855,213.429 249.855 C 212.876 249.855,212.779 249.610,212.928 248.595 C 213.096 247.453,213.053 247.386,212.464 247.874 C 212.107 248.171,211.775 248.345,211.727 248.261 C 210.563 246.239,210.336 245.199,211.057 245.199 C 211.271 245.199,211.445 244.620,211.445 243.914 C 211.445 242.508,209.441 240.094,208.943 240.899 C 208.800 241.130,208.167 241.319,207.535 241.319 C 206.904 241.319,205.429 241.830,204.257 242.455 C 203.039 243.106,201.174 243.707,199.900 243.861 C 198.675 244.009,197.476 244.286,197.237 244.477 C 195.750 245.660,177.388 244.442,172.821 242.857 C 171.552 242.416,169.903 241.880,169.156 241.665 C 167.186 241.099,164.309 239.582,162.647 238.234 C 158.149 234.584,157.299 233.948,156.921 233.948 C 156.692 233.948,155.928 233.352,155.223 232.625 C 154.442 231.819,153.390 231.199,152.528 231.038 C 151.751 230.893,150.905 230.601,150.649 230.389 C 150.167 229.991,142.055 229.790,134.262 229.984 M22.628 252.049 C 22.163 252.148,21.574 252.480,21.319 252.788 C 21.064 253.095,20.615 253.346,20.321 253.346 C 20.027 253.346,19.787 253.521,19.787 253.734 C 19.787 253.948,19.525 254.122,19.205 254.122 C 18.885 254.122,18.623 254.372,18.623 254.677 C 18.623 254.982,17.837 255.624,16.877 256.104 C 15.797 256.643,15.131 257.237,15.131 257.660 C 15.131 258.036,14.973 258.442,14.779 258.562 C 14.586 258.681,14.312 260.481,14.171 262.561 C 14.030 264.641,13.744 267.304,13.535 268.477 C 12.317 275.319,12.058 307.024,13.170 313.220 C 17.823 339.169,36.560 359.672,59.693 364.129 C 68.384 365.803,68.897 365.813,166.052 366.039 C 272.406 366.286,326.660 365.925,331.271 364.940 C 355.462 359.771,370.932 345.490,379.016 320.864 C 380.962 314.936,381.974 296.484,380.996 284.772 C 380.773 282.105,380.479 277.777,380.342 275.156 C 380.206 272.534,379.946 270.298,379.766 270.186 C 379.585 270.075,379.437 268.580,379.437 266.864 C 379.437 262.323,378.779 261.106,376.322 261.106 C 375.210 261.106,374.367 260.910,374.232 260.621 C 374.051 260.233,373.961 260.233,373.780 260.621 C 373.512 261.194,370.902 261.282,370.902 260.718 C 370.902 260.114,359.154 260.206,358.546 260.815 C 358.219 261.141,356.325 261.342,352.745 261.430 C 349.822 261.502,347.264 261.720,347.061 261.915 C 346.858 262.110,346.234 262.270,345.674 262.270 C 344.647 262.270,342.968 263.670,342.968 264.525 C 342.968 264.854,341.661 264.985,338.390 264.985 C 333.716 264.985,331.892 265.401,331.579 266.537 C 331.491 266.857,331.399 266.639,331.374 266.052 L 331.329 264.985 326.137 264.985 L 320.945 264.985 319.393 266.537 L 317.841 268.089 314.291 268.089 C 311.494 268.089,310.695 268.213,310.519 268.671 C 310.358 269.089,309.705 269.253,308.203 269.253 C 306.662 269.253,306.111 269.397,306.111 269.800 C 306.111 270.226,305.232 270.376,302.123 270.479 C 297.681 270.626,297.247 270.853,295.195 274.103 C 294.656 274.956,293.749 276.393,293.179 277.295 C 292.610 278.198,292.144 279.017,292.144 279.116 C 292.144 279.972,286.648 287.676,282.718 292.329 C 280.218 295.289,273.050 303.005,272.786 303.021 C 272.657 303.029,271.416 304.085,270.029 305.368 C 245.275 328.269,207.764 338.217,170.019 331.889 C 154.716 329.324,130.388 317.433,118.853 306.880 C 118.033 306.130,115.878 304.226,114.064 302.650 C 104.010 293.911,88.480 272.523,84.405 261.804 C 84.023 260.801,83.383 259.682,82.981 259.319 C 82.579 258.955,82.250 258.450,82.250 258.196 C 82.250 257.440,80.902 256.450,79.872 256.450 C 79.345 256.450,78.722 256.258,78.488 256.024 C 78.211 255.747,76.012 255.617,72.202 255.653 C 66.818 255.704,66.340 255.653,66.305 255.013 C 66.277 254.511,66.195 254.569,66.011 255.222 L 65.757 256.129 64.692 255.291 L 63.628 254.454 63.628 255.685 L 63.628 256.916 58.650 256.780 C 53.919 256.651,53.604 256.591,52.274 255.577 C 51.505 254.990,50.711 254.510,50.510 254.510 C 50.308 254.510,49.926 254.248,49.661 253.928 C 48.769 252.854,40.806 253.104,40.376 254.219 C 40.049 255.066,40.030 255.069,39.744 254.316 C 39.305 253.162,38.116 252.094,37.920 252.679 C 37.741 253.216,28.278 253.110,27.934 252.567 C 27.693 252.187,23.774 251.804,22.628 252.049 " stroke="none" fill="#2c6a58" fill-rule="evenodd"></path><path id="path4" d="M98.157 6.971 C 65.227 7.241,64.456 7.274,56.838 8.759 C 32.106 13.579,12.881 35.477,7.931 64.467 C 6.690 71.734,5.417 297.003,6.560 307.027 C 10.275 339.605,31.594 364.043,61.332 369.814 L 65.761 370.673 195.344 370.795 C 336.782 370.928,328.560 371.045,337.265 368.775 C 362.253 362.259,381.271 340.772,386.540 313.102 L 387.391 308.632 387.311 246.945 C 387.174 140.483,386.589 63.657,385.883 59.554 C 382.946 42.471,375.858 30.222,362.367 18.914 C 342.880 2.580,315.731 6.221,309.572 25.994 C 307.641 32.195,308.395 34.684,314.114 40.987 C 323.636 51.481,326.458 58.069,326.470 69.835 C 326.501 100.736,293.686 117.849,267.313 100.686 C 247.721 87.936,246.146 59.568,264.008 41.133 C 270.601 34.328,271.093 30.181,266.203 22.640 C 260.739 14.214,252.925 9.649,240.349 7.538 C 236.187 6.840,154.186 6.513,98.157 6.971 M234.199 9.514 C 249.824 10.373,260.818 16.468,265.599 26.923 C 267.900 31.954,267.412 33.872,262.492 39.135 C 241.722 61.352,245.435 92.196,270.436 105.119 C 297.629 119.174,328.820 100.211,328.791 69.641 C 328.780 56.995,325.651 49.703,315.763 39.280 C 310.015 33.221,309.654 28.682,314.348 21.492 C 328.271 0.163,365.386 13.259,378.788 44.229 C 384.268 56.891,384.131 55.110,384.504 118.720 C 384.677 148.274,385.003 192.444,385.228 216.877 C 386.083 309.750,385.997 312.271,381.569 324.151 C 372.698 347.954,356.343 362.803,333.463 367.827 C 327.677 369.097,262.688 369.533,150.533 369.054 L 64.985 368.689 59.285 367.473 C 33.969 362.072,15.616 342.211,9.392 313.482 L 8.341 308.632 8.408 236.469 C 8.484 154.133,9.113 74.846,9.737 68.938 C 12.201 45.611,25.182 25.388,43.719 16.001 C 50.387 12.624,55.652 11.178,65.373 10.055 C 72.258 9.259,220.903 8.783,234.199 9.514 M283.743 48.145 C 273.005 49.939,264.403 60.463,264.403 71.805 L 264.403 76.297 266.065 79.649 C 277.342 102.400,307.719 96.421,309.104 71.179 C 309.861 57.366,297.229 45.892,283.743 48.145 M293.761 51.508 C 312.957 58.376,309.821 88.030,289.520 91.606 C 282.639 92.818,273.203 87.719,269.047 80.542 C 260.164 65.201,276.941 45.491,293.761 51.508 M182.347 56.496 C 136.180 65.164,102.357 91.466,87.995 129.866 C 82.540 144.449,82.472 145.288,82.772 194.180 C 83.094 246.518,83.727 250.429,95.311 271.581 C 123.347 322.773,181.329 343.478,236.663 322.057 C 268.940 309.562,295.614 275.946,299.903 242.360 C 301.049 233.388,301.604 144.364,300.534 141.222 C 295.339 125.967,279.959 121.566,269.254 132.271 C 262.403 139.122,262.536 137.958,262.862 187.973 C 263.149 232.005,263.070 234.736,261.298 242.036 C 249.955 288.766,190.079 308.174,149.758 278.190 C 133.959 266.442,120.901 245.488,120.013 230.458 C 119.679 224.810,120.601 224.269,131.019 224.000 C 149.401 223.524,153.990 224.172,158.363 227.860 C 170.049 237.717,178.329 240.687,190.551 239.408 C 229.728 235.306,242.902 182.569,210.710 158.712 C 194.211 146.484,176.910 146.926,161.429 159.972 C 155.586 164.896,155.315 164.978,143.550 165.364 C 121.884 166.075,120.361 165.621,120.755 158.572 C 121.629 142.922,133.602 123.890,149.773 112.446 C 160.422 104.910,169.205 101.424,183.899 98.901 C 203.452 95.545,212.055 89.870,213.824 79.162 C 215.466 69.220,210.123 61.463,198.907 57.504 C 196.172 56.539,185.561 55.893,182.347 56.496 M197.478 59.551 C 212.004 64.038,216.424 77.996,206.473 87.953 C 201.985 92.444,196.059 94.642,182.052 97.007 C 169.233 99.172,164.871 100.745,154.274 107.023 C 134.799 118.561,121.322 137.712,118.712 157.561 C 117.589 166.107,119.860 167.619,133.773 167.584 C 154.575 167.533,156.034 167.225,162.949 161.430 C 176.951 149.694,192.252 148.933,207.692 159.207 C 242.264 182.210,226.891 237.830,186.033 237.568 C 175.347 237.499,169.980 235.176,159.095 225.908 C 154.698 222.164,154.726 222.169,137.342 222.141 C 118.889 222.112,117.932 222.453,117.952 229.058 C 117.989 241.029,126.804 258.512,139.269 271.335 C 180.104 313.344,251.196 295.447,263.893 239.961 L 264.781 236.081 264.855 191.077 C 264.927 147.394,264.952 145.985,265.708 143.102 C 270.590 124.479,292.868 123.730,298.553 141.998 C 299.581 145.301,299.042 234.465,297.945 242.577 C 293.889 272.574,274.574 299.395,245.005 316.093 C 226.712 326.422,199.610 330.895,176.049 327.473 C 132.338 321.124,91.917 281.644,85.856 239.379 C 84.783 231.898,84.792 149.928,85.866 144.333 C 91.480 115.104,115.943 84.800,145.204 70.831 C 155.525 65.903,172.528 60.385,182.153 58.839 C 184.847 58.406,195.351 58.894,197.478 59.551 M166.096 170.135 C 150.536 174.484,142.765 193.105,150.812 206.757 C 163.514 228.306,196.693 218.931,196.693 193.792 C 196.693 178.328,180.786 166.029,166.096 170.135 M177.513 172.859 C 189.352 175.927,197.243 189.883,193.282 200.750 C 185.562 221.930,155.807 221.255,150.747 199.785 C 146.988 183.840,161.920 168.818,177.513 172.859 " stroke="none" fill="#b5c7ac" fill-rule="evenodd"></path><path id="path5" d="M170.070 173.463 C 157.702 174.392,148.671 187.575,151.903 199.984 C 158.032 223.512,192.925 218.255,193.001 193.792 C 193.039 181.624,182.758 172.510,170.070 173.463 " stroke="none" fill="#836f17" fill-rule="evenodd"></path></g></svg>