<svg xmlns="http://www.w3.org/2000/svg" width="142" height="81" fill="#004c6c" xmlns:v="https://vecta.io/nano"><path d="M64.937 11.754c0 1.784-.335 2.774-1.62 2.774s-1.623-.996-1.623-2.78.335-2.774 1.623-2.774 1.62.999 1.62 2.78zm-.664.122c0-1.322-.054-2.275-.96-2.275s-.963.944-.963 2.013c0 1.322.051 2.275.963 2.275s.96-.938.96-2.013zm3.914 2.519h-2.362V9.102h.64v4.711h1.722v.582zm3.211 0h-2.359V9.102h.637v4.711h1.722v.582zm2.056.133c-.951 0-1.462-.643-1.462-1.867h.682c0 .877.23 1.27.801 1.27.514 0 .756-.304.756-.822 0-.609-.347-.819-.858-1.112-.571-.326-1.226-.609-1.226-1.632s.655-1.392 1.357-1.392c.831 0 1.351.484 1.351 1.523h-.646c0-.609-.209-.938-.697-.938-.103-.009-.206.006-.302.043a.69.69 0 0 0-.254.173.7.7 0 0 0-.155.268.71.71 0 0 0-.025.31c0 .609.445.84.942 1.096.598.326 1.172.633 1.172 1.602s-.598 1.489-1.438 1.489m3.676-.011c-1.357 0-1.564-1.261-1.564-2.82s.23-2.741 1.623-2.741c1.046 0 1.396.673 1.426 1.791h-.679c0-.633-.081-1.185-.765-1.185-.927 0-.951.996-.951 2.031 0 1.34 0 2.305.96 2.305.598 0 .795-.414.795-1.383h.673c0 1.249-.43 1.995-1.522 1.995m5.386-2.767c0 1.784-.335 2.774-1.617 2.774s-1.626-.996-1.626-2.78.335-2.774 1.626-2.774 1.617.999 1.617 2.78zm-.661.128c0-1.322-.051-2.275-.957-2.275s-.966.944-.966 2.013c0 1.322.051 2.275.966 2.275s.957-.944.957-2.013zm2.23-2.78h-.631v5.292h.631V9.102zm3.584 5.293h-2.359V9.102h.637v4.711h1.722v.582zm5.16-4.711h-1.378v4.711h-.64V9.684h-1.381v-.582h3.399v.582zm.706 4.711V9.102h2.314v.582h-1.674v1.739h1.549v.591h-1.549v1.8h1.743v.582h-2.383zm4.051-5.293h-.631v5.292h.631V9.102zm2.532 5.426c-1.361 0-1.567-1.261-1.567-2.82s.23-2.741 1.623-2.741c1.047 0 1.397.673 1.426 1.791h-.675c0-.633-.081-1.185-.766-1.185-.926 0-.947.996-.947 2.031 0 1.34 0 2.305.956 2.305.598 0 .796-.414.796-1.383h.684c0 1.249-.43 1.995-1.518 1.995m5.581-.126h-.652l-1.916-4.105v4.105h-.616V9.102h.765l1.803 3.992V9.102h.616v5.292zm1.186 0V9.102h2.317v.582h-1.677v1.739h1.549v.591h-1.549v1.8h1.743v.582h-2.383zm6.293-2.641c0 1.784-.334 2.774-1.617 2.774s-1.626-.996-1.626-2.78.335-2.774 1.626-2.774 1.617.999 1.617 2.78zm-.66.122c0-1.322-.051-2.275-.957-2.275s-.956.95-.956 2.019c0 1.322.053 2.275.965 2.275s.957-.944.957-2.013m3.901 2.513h-2.359V9.102h.637v4.711h1.722v.582zm3.094-1.432h-1.632l-.395 1.428h-.66l1.542-5.289h.685l1.537 5.289h-.679l-.398-1.428zm-.155-.588l-.661-2.412-.66 2.412h1.321zm2.634 2.019h-.634V9.102h.631l.003 5.292zm-.036-5.868h-.506l.841-1.331.502.396-.837.935zm4.242 3.228c0 1.784-.332 2.774-1.618 2.774s-1.623-.996-1.623-2.78.332-2.774 1.623-2.774 1.618.999 1.618 2.78zm-.655.122c0-1.322-.051-2.275-.957-2.275s-.965.944-.965 2.013c0 1.322.053 2.275.965 2.275s.957-.938.957-2.013zm3.094 2.652c-1.357 0-1.567-1.261-1.567-2.82s.231-2.741 1.627-2.741c1.043 0 1.393.673 1.423 1.791h-.676c0-.633-.081-1.185-.762-1.185-.93 0-.951.996-.951 2.031 0 1.34 0 2.305.957 2.305.598 0 .795-.414.795-1.383h.673c0 1.249-.431 1.995-1.519 1.995m5.594-.126h-.637V12.02h-1.907v2.375h-.64V9.102h.64v2.336h1.907V9.102h.637v5.292zm4.104-4.711h-1.381v4.711h-.637V9.684h-1.381v-.582h3.399v.582zm2.349 3.279h-1.632l-.391 1.428h-.661l1.536-5.289h.682l1.537 5.289h-.667l-.404-1.428zm-.155-.588l-.661-2.412-.66 2.412h1.321zm-75.786 8.56c0 .758-.436 1.523-1.438 1.523h-1.366v-5.286h1.543c.816 0 1.106.609 1.106 1.218a1.27 1.27 0 0 1-.159.716 1.24 1.24 0 0 1-.526.502 1.26 1.26 0 0 1 .638.507 1.3 1.3 0 0 1 .202.799v.021zm-2.173-1.568h.661c.526 0 .721-.423.721-.871 0-.368-.135-.764-.598-.764h-.777l-.006 1.635zm1.513 1.541c0-.505-.206-.974-.741-.974h-.771v1.928h.721c.598 0 .792-.478.792-.953zm4.735 1.556h-.64v-2.375h-1.907v2.375h-.637v-5.292h.637v2.336h1.907v-2.336h.64v5.292zm3.426-1.428h-1.632l-.392 1.428h-.661l1.534-5.292h.685l1.537 5.292h-.684l-.386-1.428zm-.155-.591l-.655-2.412-.661 2.412h1.315zm2.633-3.274h-.631v5.292h.631v-5.292zm3.584 5.293h-2.359v-5.292h.637v4.711h1.722v.582zm.855 0v-5.292h2.314v.582h-1.677v1.739h1.552v.591h-1.552v1.8h1.743v.582h-2.38zm7.07-1.428h-1.644l-.395 1.428h-.661l1.537-5.292h.685l1.534 5.292h-.673l-.383-1.428zm-.15-.591l-.661-2.412-.661 2.412h1.321zm-.38-3.846H85.2l.837-1.331.505.393-.825.938zm4.662 1.154H89v4.711h-.64v-4.711h-1.378v-.582h3.396v.582zm3.889 4.711h-.64v-2.375H91.72v2.375h-.637v-5.292h.637v2.336h1.907v-2.336h.64v5.292zm3.429-1.428h-1.632l-.401 1.428h-.661l1.557-5.292h.682l1.537 5.292h-.676l-.407-1.428zm-.156-.591l-.661-2.412-.661 2.412h1.321zm4.643 2.156c-1.357 0-1.563-1.264-1.563-2.82s.23-2.741 1.623-2.741c1.046 0 1.396.673 1.426 1.791h-.676c0-.633-.08-1.185-.765-1.185-.927 0-.951.996-.951 2.031 0 1.34 0 2.308.96 2.308.598 0 .792-.417.792-1.386h.676c0 1.249-.431 1.998-1.522 1.998m4.772-.133h-2.359v-5.292h.637v4.711h1.722v.582zm1.521-5.293h-.631v5.292h.631v-5.292zm3.465 3.865h-1.629l-.392 1.428h-.661l1.534-5.292h.684l1.525 5.292h-.676l-.385-1.428zm-.156-.591l-.66-2.412-.661 2.412h1.321zm4.29-2.692h-1.381v4.711h-.637v-4.711h-1.381v-.582h3.399v.582zm3.887 4.711h-.637v-2.375h-1.907v2.375h-.637v-5.292h.637v2.336h1.907v-2.336h.637v5.292zm18.005 9.558V52.08l-1.01-1.58-13.892-20.448-.03-.046h-1.764-1.973v2.01V58.85h3.865V36.83l.891 1.443 13.973 20.53.03.046h3.775V30.006h-1.865l-2 2.016zM89.759 55.156v-25.15h-1.886l-1.982 2.016V58.85h16.394v-3.694H89.759zm19.219-23.14V58.85h3.866V30.006h-1.899l-1.967 2.01zm-71.541-1.175h8.529l.003-21.09h8.822V.609H28.612V9.75h8.825v21.09zM54.8 55.071c0 3.538-1.33 6.59-3.85 8.831-2.392 2.132-5.68 3.283-9.246 3.283h-.206c-3.495-.043-6.696-1.218-9.043-3.28-2.52-2.235-3.85-5.283-3.85-8.831V36.155h8.532v17.613a4.17 4.17 0 0 0 .336 1.672c.226.527.559 1 .976 1.388.893.797 2.036 1.243 3.223 1.258h.048c1.182-.017 2.319-.463 3.208-1.258.417-.388.749-.861.975-1.388a4.16 4.16 0 0 0 .335-1.672V36.155h8.532l.033 18.916zm20.95-11.367c1.916-1.373 2.888-3.328 2.888-5.819 0-2.363-.831-4.351-2.392-5.743s-3.821-2.132-6.499-2.132h-9.566v6.154l1.632 1.663v21.027h9.178c5.698 0 9.381-3.252 9.381-8.289 0-3.191-1.719-5.74-4.613-6.858l-.009-.003zm-10.08 2.278h5.312c3.402 0 5.435 1.687 5.435 4.51 0 2.929-2.033 4.677-5.435 4.677H65.67v-9.187zm4.23-3.654h-4.23v-3.1l-1.632-1.663V33.7h5.701c3.172 0 4.992 1.599 4.992 4.388 0 2.57-1.898 4.227-4.831 4.227m-46.806-6.078l-.045-.073c-2.472-3.959-6.798-6.16-12.182-6.16H.643v28.843H8.46c4.284 0 7.904-1.373 10.463-3.959s3.886-6.191 3.886-10.454c.032-2.262-.406-4.506-1.285-6.583l1.57-1.614zm-5.184 3.066a9.99 9.99 0 0 1 .347.914 13.57 13.57 0 0 1 .616 4.199c0 3.286-.971 6.014-2.804 7.887s-4.451 2.841-7.608 2.841h-3.95V33.7h6.356c3.803 0 6.759 1.373 8.553 3.959l-1.54 1.565.03.079zm71.374 27.632h-1.381v4.711h-.637v-4.711h-1.381v-.579h3.399v.579zm.702 4.71v-5.292h2.317v.585h-1.677v1.739h1.552v.588h-1.552v1.8h1.743v.582h-2.383zm4.616.138c-1.357 0-1.563-1.264-1.563-2.82s.23-2.741 1.623-2.741c1.046 0 1.396.673 1.426 1.79h-.676c0-.633-.081-1.185-.765-1.185-.927 0-.948.996-.948 2.031 0 1.34 0 2.305.957 2.305.598 0 .792-.414.792-1.383h.676c0 1.249-.43 1.998-1.522 1.998m5.596-.133h-.639v-2.372h-1.907v2.372h-.637v-5.292h.637v2.336h1.907v-2.336h.639v5.292zm4.371 0h-.655l-1.913-4.105v4.105h-.616v-5.292h.766l1.802 3.992v-3.992h.616v5.292zm4.17-2.637c0 1.781-.335 2.774-1.617 2.774s-1.626-.999-1.626-2.783.334-2.774 1.626-2.774 1.617.999 1.617 2.783zm-.661.128c0-1.325-.053-2.275-.956-2.275s-.966.944-.966 2.01c0 1.322.051 2.275.966 2.275s.956-.944.956-2.01zm3.911 2.509h-2.362v-5.292h.64v4.711h1.722v.582zm3.686-2.637c0 1.781-.332 2.774-1.618 2.774s-1.623-.999-1.623-2.783.332-2.774 1.623-2.774 1.618.999 1.618 2.783zm-.661.128c0-1.325-.051-2.275-.957-2.275s-.965.944-.965 2.01c0 1.322.054 2.275.965 2.275s.957-.944.957-2.01zm2.891-.158h1.536v2.668h-.598v-.445c-.096.185-.242.338-.421.441a1.06 1.06 0 0 1-.589.14c-1.256 0-1.456-1.355-1.456-2.814 0-1.55.23-2.741 1.626-2.741 1.047 0 1.393.673 1.426 1.794h-.675c0-.636-.084-1.188-.766-1.188-.926 0-.95.999-.95 2.034 0 1.337.038 2.302.95 2.302.598 0 .855-.414.855-1.382v-.225h-.938v-.585zm3.28-2.625h-.631v5.292h.631v-5.292zm2.528 5.43c-1.357 0-1.563-1.264-1.563-2.82s.227-2.741 1.623-2.741c1.047 0 1.396.673 1.423 1.79h-.672c0-.633-.084-1.185-.766-1.185-.926 0-.947.996-.947 2.031 0 1.34 0 2.305.956 2.305.598 0 .792-.414.792-1.383h.676c0 1.249-.43 1.998-1.522 1.998m4.505-1.561h-1.632l-.395 1.428h-.66l1.536-5.289h.682l1.537 5.289h-.676l-.392-1.428zm-.155-.591l-.661-2.412-.649 2.412h1.31zm4.326 2.019h-2.362v-5.292h.64v4.711h1.722v.582zm-43.455 2.534v3.654c0 1.06-.422 1.769-1.513 1.769s-1.537-.703-1.537-1.769v-3.654h.631v3.615c0 .74.221 1.218.936 1.218.658 0 .867-.423.867-1.121v-3.712h.616zm4.296 5.293h-.652l-1.916-4.105v4.105h-.616V74.18h.765l1.803 3.989V74.18h.616v5.292zm1.853-5.293h-.631v5.292h.631v-5.292zm3.949 0l-1.276 5.292h-.652l-1.276-5.292h.697l.912 4.339.915-4.339h.682zm.706 5.293V74.18h2.314v.582h-1.677V76.5h1.551v.591h-1.551v1.8h1.745v.582h-2.382zm6.284.006h-.682l-.897-2.253h-.708v2.253h-.598v-5.299h1.267c1.083 0 1.495.673 1.495 1.453.021.293-.05.584-.202.833a1.36 1.36 0 0 1-.647.55l.972 2.463zm-.792-3.825c0-.46-.18-.892-.837-.892h-.658v1.891h.565c.696 0 .927-.499.927-.999m2.812 3.953c-.95 0-1.461-.643-1.461-1.867h.684c0 .877.23 1.27.801 1.27.512 0 .757-.305.757-.822 0-.609-.35-.819-.861-1.111-.571-.326-1.226-.609-1.226-1.635s.655-1.389 1.36-1.389c.828 0 1.349.484 1.349 1.523h-.646c0-.609-.206-.938-.697-.938-.101-.008-.203.006-.298.043a.68.68 0 0 0-.251.169.69.69 0 0 0-.156.262c-.032.098-.042.202-.03.305 0 .609.445.84.945 1.096.597.326 1.171.636 1.171 1.602s-.597 1.489-1.441 1.489m3.035-5.424h-.631v5.292h.631v-5.292zm4.14.582h-1.378v4.711h-.64v-4.711h-1.381v-.582h3.399v.582zm2.46 4.711h-.651v-2.065l-1.346-3.228h.721l.981 2.661.971-2.661h.667l-1.343 3.228v2.065zm7.095-2.735c0 1.361-.341 2.722-2.093 2.722h-.957v-5.28h.996c1.713 0 2.048 1.218 2.048 2.57l.006-.012zm-.676.049c0-1.066-.116-2.025-1.408-2.025h-.329v4.126h.314c1.292 0 1.423-1.032 1.423-2.101zm4.577-2.607v3.654c0 1.06-.421 1.769-1.513 1.769s-1.536-.703-1.536-1.769v-3.654h.631v3.615c0 .74.224 1.218.935 1.218.661 0 .867-.423.867-1.121v-3.712h.616zm3.919 3.776c0 .755-.439 1.523-1.441 1.523h-1.363v-5.299h1.543c.816 0 1.106.609 1.106 1.218.018.249-.038.499-.16.716s-.304.392-.525.502a1.26 1.26 0 0 1 .638.508 1.3 1.3 0 0 1 .202.799v.034zm-2.176-1.583h.661c.529 0 .72-.423.72-.868 0-.371-.131-.764-.598-.764h-.78l-.003 1.632zm1.516 1.544c0-.509-.21-.977-.742-.977h-.774v1.927h.72c.598 0 .796-.475.796-.95zm3.91 1.556h-2.359V74.18h.637v4.711h1.722v.582zm1.521-5.293h-.631v5.292h.631v-5.292zm4.407 5.293h-.652l-1.916-4.105v4.105h-.616V74.18h.765l1.803 3.989V74.18h.616v5.292z"/></svg>