<svg xmlns="http://www.w3.org/2000/svg" height="53.373" width="133.333" xmlns:v="https://vecta.io/nano"><path d="M68.215.029c4.768-.164 9.568.553 14.065 2.149 6.766 2.375 12.813 6.728 17.237 12.366 1.946 2.473 3.577 5.192 4.854 8.069.227.479.401 1.017.28 1.55-.149.895-.933 1.635-1.836 1.725-.937.137-1.906-.448-2.241-1.331A33.68 33.68 0 0 0 88.289 9.79a33.55 33.55 0 0 0-11.011-4.772 34.05 34.05 0 0 0-15.424-.004 33.74 33.74 0 0 0-18.481 11.551c-1.976 2.423-3.607 5.124-4.837 7.997-.266.668-.878 1.191-1.591 1.308a2.12 2.12 0 0 1-1.917-.617c-.566-.567-.751-1.472-.459-2.216 3.384-8.002 9.651-14.723 17.356-18.724A38.03 38.03 0 0 1 68.215.029h0" fill="#f49813"/><g fill="#3069b5"><path d="M61.914 24.666c-.029-.416.365-.727.754-.736l1.521-.002c.353.012.764.247.763.643l.016 13.952 5.674-6.267c.372-.367.667-.923 1.246-.971l2.344-.012c.301-.027.637.249.531.57-.123.248-.35.418-.535.615l-6.13 6.13 5.858 6.759c.252.32.567.592.778.945.155.276-.102.612-.397.625l-1.951.016c-.339-.008-.705.042-1.012-.133-.324-.186-.521-.518-.753-.798l-5.654-7.132-.007 7.013c-.007.27.048.595-.187.792-.374.361-.931.234-1.397.258-.414-.014-.899.077-1.235-.229-.187-.146-.237-.395-.229-.616l.004-21.422m-8.595 6.568c.946-.304 2.012-.362 2.939.039.325.153.703.478.556.879l-.452 1.508c-.131.355-.543.487-.89.418-.78-.134-1.546-.392-2.346-.366-.558-.013-1.073.286-1.455.675-.616.603-.935 1.445-1.078 2.281-.114.604-.081 1.221-.086 1.832l-.001 7.697c.036.422-.4.708-.781.723-.523.007-1.045.014-1.567-.004-.378-.02-.803-.295-.754-.72l.001-14.248c-.032-.472.491-.729.902-.685.515.034 1.218-.16 1.553.358.254.601.375 1.25.614 1.856.718-.985 1.67-1.854 2.846-2.242h0M0 31.596c.145-.167.315-.347.557-.33l2.13.01c.36.01.608.327.66.661l2.077 8.513.584 2.634.294 2.415.648-3.415L9.675 31.93c.071-.386.434-.66.82-.66l2.37-.006c.423-.02.877.228.979.661l2.023 7.411c.41 1.6.947 3.173 1.179 4.815l.22 1.354c.255-2.579.918-5.089 1.464-7.614l1.347-6.03c.067-.404.494-.607.87-.595l1.916.011c.379.011.596.43.463.767L19.487 46.23c-.069.379-.399.675-.786.681l-2.971.013c-.355.022-.73-.168-.792-.542l-2.632-9.761c-.318-1.132-.446-2.305-.58-3.469l-.52 3.108-2.703 10.052c-.102.543-.722.651-1.183.616-.92-.017-1.841.021-2.76-.017-.328.001-.58-.254-.639-.564L.049 32.219c-.045-.206-.039-.416-.049-.622h0m116.06-.321h2.018c.409.006.793.285.922.676l3.471 9.104c.242.616.411 1.258.52 1.91l1.677-5.327 1.873-5.762c.093-.334.411-.562.75-.591.549-.041 1.101-.005 1.65-.02.321.004.704-.034.949.224.159.134.125.358.059.532l-5.555 15.871c-.322.881-.569 1.804-1.087 2.596-.743 1.207-1.948 2.077-3.272 2.547-.463.143-.94.461-1.438.283-.353-.09-.489-.457-.677-.727-.135-.245-.385-.471-.333-.776.025-.302.267-.548.552-.629.558-.193 1.126-.405 1.578-.799 1.099-.93 1.779-2.305 2.037-3.704-.175-.621-.5-1.193-.735-1.794l-5.309-12.328c-.107-.269-.264-.525-.294-.817.004-.32.371-.461.643-.47h0m-82.443 1.988c-.965.179-1.844.78-2.334 1.635-.818 1.387-.912 3.06-.875 4.633.058 1.424.287 2.943 1.195 4.094.678.866 1.791 1.301 2.873 1.284 1.041.033 2.132-.319 2.837-1.111.901-.986 1.191-2.354 1.315-3.644.055-1.267.08-2.557-.248-3.795-.261-1.045-.814-2.091-1.769-2.654-.889-.545-1.987-.596-2.995-.442zm.407-2.255c1.745-.107 3.574.255 5.015 1.289 1.289.917 2.164 2.329 2.572 3.844.486 1.808.484 3.738.043 5.556-.415 1.676-1.386 3.255-2.85 4.207-1.565 1.039-3.531 1.308-5.368 1.087-1.565-.193-3.09-.879-4.18-2.032-1.281-1.342-1.917-3.19-2.049-5.017-.161-2.026.149-4.171 1.277-5.901.834-1.302 2.159-2.259 3.638-2.695.617-.193 1.26-.282 1.903-.337h0m51.482 2.172c-.957.061-1.88.612-2.307 1.485-.834 1.615-.851 3.495-.81 5.271.067 1.16.193 2.358.733 3.406.366.706 1.03 1.263 1.815 1.434 1.202.289 2.616.044 3.47-.905.823-.937 1.094-2.211 1.22-3.417.087-1.374.092-2.777-.249-4.122-.234-.899-.631-1.798-1.344-2.423-.683-.601-1.635-.833-2.529-.729zm4.117-8.714c-.022-.365.351-.597.674-.625l1.557-.009c.396-.004.839.291.781.73l-.001 21.52c.027.37-.338.658-.68.68a10.13 10.13 0 0 1-1.239-.007c-.29-.018-.571-.204-.67-.482-.155-.466-.236-.951-.354-1.424-.573.777-1.311 1.465-2.229 1.806-1.309.482-2.766.49-4.111.161-1.352-.325-2.529-1.254-3.181-2.476-1.023-1.866-1.145-4.061-1.081-6.143.036-1.779.376-3.655 1.535-5.067.874-1.196 2.306-1.883 3.753-2.063 1.346-.197 2.806.03 3.921.845.527.371.949.868 1.326 1.388l-.002-8.835m14.488 8.804c-.48.098-.945.291-1.333.591-.776.604-1.161 1.564-1.367 2.496-.299 1.479-.295 3.007-.141 4.503.145 1.099.421 2.272 1.227 3.084.656.689 1.646.942 2.572.896.996.036 2.032-.335 2.675-1.117.803-.971 1.03-2.264 1.147-3.481.075-1.431.075-2.897-.327-4.286-.254-.866-.719-1.727-1.503-2.22-.863-.567-1.956-.619-2.949-.467zm-1.333-1.965a8.74 8.74 0 0 1 4.257-.086c1.297.301 2.511 1.029 3.308 2.107.843 1.105 1.268 2.476 1.445 3.841.154 1.053.109 2.12.111 3.181l-.005 5.744c.021.233-.127.44-.317.561-.321.198-.72.11-1.078.133-.402-.003-.931.032-1.149-.386-.213-.492-.258-1.04-.395-1.557-.539.655-1.097 1.331-1.878 1.71-1.189.587-2.578.553-3.85.305-1.556-.307-2.99-1.228-3.87-2.554-1.048-1.544-1.429-3.451-1.414-5.293-.013-1.796.339-3.653 1.337-5.172.798-1.242 2.08-2.142 3.497-2.534h0m27.834 11.764c-.79.29-1.287 1.202-1.086 2.024.206.966 1.33 1.626 2.267 1.268.865-.264 1.41-1.25 1.142-2.119a1.77 1.77 0 0 0-2.323-1.173zm.109-.413c.469-.074.978-.079 1.413.138.741.336 1.273 1.132 1.193 1.959.062.986-.768 1.868-1.715 2.027-1.066.227-2.213-.546-2.431-1.609-.28-1.07.463-2.275 1.54-2.515h0"/><path d="M130.939 43.858v.673c.196-.012.398 0 .592-.054.182-.076.164-.307.115-.462-.189-.184-.469-.136-.707-.157zm-.593-.365c.567.032 1.202-.128 1.712.189.411.309.212.981-.253 1.124.134.354.32.683.491 1.021l-.636.011-.448-.944-.273-.005-.002.945-.594-.007.003-2.334"/></g></svg>